<svg xmlns="http://www.w3.org/2000/svg" width="113.128" height="20" viewBox="0 0 113.128 20">
  <g id="Group_73" data-name="Group 73" transform="translate(-133.235 -654.259)">
    <g id="Group_37" data-name="Group 37">
      <g id="Group_36" data-name="Group 36">
        <path id="Path_56" data-name="Path 56" d="M154.121,661.76a1.441,1.441,0,0,0-1.164-.981l-5.5-.8L145,655a1.5,1.5,0,0,0-2.582,0l-2.46,4.98-5.487.8a1.44,1.44,0,0,0-.8,2.457l3.977,3.867-.937,5.473a1.44,1.44,0,0,0,2.091,1.518l4.9-2.586,4.917,2.586a1.449,1.449,0,0,0,.67.165,1.465,1.465,0,0,0,.85-.273,1.446,1.446,0,0,0,.573-1.41l-.938-5.473,3.978-3.867A1.437,1.437,0,0,0,154.121,661.76Z" fill="#20d3c2"/>
      </g>
    </g>
    <g id="Group_39" data-name="Group 39">
      <g id="Group_38" data-name="Group 38">
        <path id="Path_57" data-name="Path 57" d="M177.164,661.76a1.441,1.441,0,0,0-1.164-.981l-5.5-.8L168.04,655a1.5,1.5,0,0,0-2.582,0l-2.46,4.98-5.487.8a1.44,1.44,0,0,0-.8,2.457l3.978,3.867-.937,5.473a1.44,1.44,0,0,0,2.091,1.518l4.9-2.586,4.917,2.586a1.446,1.446,0,0,0,.67.165,1.465,1.465,0,0,0,.85-.273,1.446,1.446,0,0,0,.573-1.41l-.938-5.473,3.978-3.867A1.437,1.437,0,0,0,177.164,661.76Z" fill="#20d3c2"/>
      </g>
    </g>
    <g id="Group_41" data-name="Group 41">
      <g id="Group_40" data-name="Group 40">
        <path id="Path_58" data-name="Path 58" d="M200.207,661.76a1.441,1.441,0,0,0-1.164-.981l-5.5-.8-2.46-4.98a1.5,1.5,0,0,0-2.582,0l-2.46,4.98-5.487.8a1.44,1.44,0,0,0-.8,2.457l3.978,3.867-.937,5.473a1.44,1.44,0,0,0,2.091,1.518l4.9-2.586,4.917,2.586a1.449,1.449,0,0,0,.67.165,1.465,1.465,0,0,0,.85-.273,1.446,1.446,0,0,0,.573-1.41l-.938-5.473,3.978-3.867A1.437,1.437,0,0,0,200.207,661.76Z" fill="#20d3c2"/>
      </g>
    </g>
    <g id="Group_43" data-name="Group 43">
      <g id="Group_42" data-name="Group 42">
        <path id="Path_59" data-name="Path 59" d="M223.25,661.758a1.442,1.442,0,0,0-1.164-.981l-5.5-.8-2.46-4.98a1.5,1.5,0,0,0-2.582,0l-2.46,4.98-5.487.8a1.44,1.44,0,0,0-.8,2.457l3.977,3.866-.937,5.473a1.44,1.44,0,0,0,2.091,1.518l4.9-2.585,4.916,2.585a1.438,1.438,0,0,0,.67.166,1.459,1.459,0,0,0,.85-.274,1.444,1.444,0,0,0,.573-1.41l-.937-5.472,3.977-3.867A1.438,1.438,0,0,0,223.25,661.758Z" fill="#20d3c2"/>
      </g>
    </g>
    <g id="Group_45" data-name="Group 45">
      <g id="Group_44" data-name="Group 44">
        <path id="Path_60" data-name="Path 60" d="M246.293,661.76a1.441,1.441,0,0,0-1.164-.981l-5.5-.8-2.46-4.98a1.5,1.5,0,0,0-2.582,0l-2.46,4.98-5.487.8a1.44,1.44,0,0,0-.8,2.457l3.978,3.867-.938,5.473a1.44,1.44,0,0,0,2.091,1.518l4.9-2.586,4.917,2.586a1.442,1.442,0,0,0,.669.165,1.465,1.465,0,0,0,.85-.273,1.445,1.445,0,0,0,.573-1.41l-.937-5.473,3.978-3.867A1.439,1.439,0,0,0,246.293,661.76Zm-6.9,3.806a1.442,1.442,0,0,0-.416,1.276l.573,3.344-3-1.58a1.443,1.443,0,0,0-1.34,0l-2.99,1.576.574-3.34a1.442,1.442,0,0,0-.417-1.276l-2.425-2.357,3.343-.487a1.44,1.44,0,0,0,1.083-.788l1.5-3.043,1.5,3.043a1.438,1.438,0,0,0,1.084.788l3.356.488Z" fill="#20d3c2"/>
      </g>
    </g>
  </g>
</svg>
