<svg id="Bexim" xmlns="http://www.w3.org/2000/svg" width="157.038" height="44.865" viewBox="0 0 157.038 44.865">
  <g id="Group_77" data-name="Group 77" transform="translate(55.991 7.68)">
    <path id="Path_100" data-name="Path 100" d="M217.434,250.358a3.015,3.015,0,0,1,.9-2.146,2.87,2.87,0,0,1,2.147-.937,3.058,3.058,0,0,1,2.185.9,2.911,2.911,0,0,1,.937,2.186,2.955,2.955,0,0,1-.918,2.166,3,3,0,0,1-2.2.917,2.876,2.876,0,0,1-2.166-.917A3.025,3.025,0,0,1,217.434,250.358Z" transform="translate(-155.3 -247.275)" fill="#ff7f62"/>
    <g id="Group_76" data-name="Group 76" transform="translate(0 2.381)">
      <path id="Path_101" data-name="Path 101" d="M148.188,276.507V249.928h10.07a10.109,10.109,0,0,1,5.346,1.21,5.089,5.089,0,0,1,2.42,4.683,5.527,5.527,0,0,1-1.951,4.332,8.305,8.305,0,0,1-4.451,1.913v.351a9.579,9.579,0,0,1,4.567,1.483,5.674,5.674,0,0,1,2.46,4.957,6.718,6.718,0,0,1-2.967,5.854,11.061,11.061,0,0,1-6.478,1.8Zm5.854-24.277V261.4h1.211a7.609,7.609,0,0,0,1.853-.194,3.436,3.436,0,0,0,1.425-.777,4.472,4.472,0,0,0,1.269-1.789,6.145,6.145,0,0,0,.41-2.254,4.394,4.394,0,0,0-1.093-3.186,4.1,4.1,0,0,0-3.085-1.127A13.749,13.749,0,0,0,154.042,252.23Zm0,11.437v10.576h1.952a4.457,4.457,0,0,0,3.181-1.385,4.959,4.959,0,0,0,1.425-3.726q0-3.046-1.717-4.333A8.189,8.189,0,0,0,154.042,263.667Z" transform="translate(-148.188 -249.928)" fill="#0e153d"/>
      <path id="Path_102" data-name="Path 102" d="M189.789,268.115H178.627a9.567,9.567,0,0,0,1.132,5.151,4.687,4.687,0,0,0,4.293,2.108,6.384,6.384,0,0,0,2.381-.468,8.491,8.491,0,0,0,2.186-1.289l.467.352-.858,2.185a9.478,9.478,0,0,1-5.581,1.757q-4.8,0-7.3-2.694t-2.5-7.57a9.585,9.585,0,0,1,2.4-6.772,8.471,8.471,0,0,1,6.539-2.6q4.333,0,6.283,2.81Q189.791,263.548,189.789,268.115Zm-11.162-1.874H184.4a15.336,15.336,0,0,0-.391-3.864q-.625-2.343-2.186-2.342-1.872,0-2.654,2.3A12.172,12.172,0,0,0,178.627,266.242Z" transform="translate(-150.721 -250.786)" fill="#0e153d"/>
      <path id="Path_103" data-name="Path 103" d="M205.365,277.6l-3.747-6.791q-.507.79-2.145,3.317-1.446,2.249-2.187,3.473l-1.56-.195-1.562.195,6.207-8.665q-1.6-2.863-3.669-6.312-.117-.2-2.381-3.961.664,0,1.8.1t1.367.1q.7,0,1.833-.1c.755-.069,1.211-.1,1.367-.1q.818,1.525,1.7,3.147t1.658,2.991q.976-1.407,2.07-3.01.9-1.327,1.99-3.127l1.755.126,1.757-.126q-1.716,2.07-3.317,4.1-1.405,1.8-3.044,3.945l2.146,3.671q2.145,3.631,4.331,7.223-.664,0-1.794-.1c-.756-.066-1.224-.1-1.406-.1q-.664,0-1.8.1T205.365,277.6Z" transform="translate(-152.91 -250.825)" fill="#0e153d"/>
      <path id="Path_104" data-name="Path 104" d="M217.87,277.6V258.671q.664.078,1.5.136c.559.039.955.058,1.191.058a13.977,13.977,0,0,0,1.56-.078q.7-.078,1.133-.117V277.6a9.349,9.349,0,0,0-.977-.078q-1.365-.116-1.716-.117a14.225,14.225,0,0,0-1.562.078C218.534,277.535,218.155,277.574,217.87,277.6Z" transform="translate(-155.345 -250.826)" fill="#0e153d"/>
      <path id="Path_105" data-name="Path 105" d="M229.221,277.559V258.631c.443.052.943.1,1.5.136s.957.058,1.191.058a14.014,14.014,0,0,0,1.561-.078q.7-.078,1.132-.117v2.927a6.647,6.647,0,0,1,2.439-2.361,6.482,6.482,0,0,1,3.3-.918,5.611,5.611,0,0,1,3.2.918,5.21,5.21,0,0,1,1.99,2.634,8.619,8.619,0,0,1,2.5-2.537,6.3,6.3,0,0,1,3.436-1.015,5.716,5.716,0,0,1,4.721,1.835,7.776,7.776,0,0,1,1.367,5v12.45a9.325,9.325,0,0,0-.975-.078q-1.368-.116-1.717-.117a14.255,14.255,0,0,0-1.562.078q-.7.078-1.132.117V266.983q0-3.24-.721-4.332a2.389,2.389,0,0,0-2.128-1.093,2.892,2.892,0,0,0-2.654,1.171,5.882,5.882,0,0,0-.585,3.006v11.825a9.325,9.325,0,0,0-.975-.078q-1.367-.116-1.717-.117a14.256,14.256,0,0,0-1.562.078q-.7.078-1.131.117V266.983q0-3.24-.721-4.332a2.389,2.389,0,0,0-2.127-1.093,2.723,2.723,0,0,0-2.616,1.483,6.666,6.666,0,0,0-.623,3.123v11.4a9.356,9.356,0,0,0-.976-.078q-1.367-.116-1.717-.117a14.239,14.239,0,0,0-1.561.078Q229.651,277.521,229.221,277.559Z" transform="translate(-156.51 -250.786)" fill="#0e153d"/>
    </g>
  </g>
  <g id="Group_78" data-name="Group 78" transform="translate(0 0)">
    <path id="Path_106" data-name="Path 106" d="M111.952,239.052a22.426,22.426,0,0,0-24.4,30.833q.821-.583,1.673-1.123A37.892,37.892,0,0,1,111.952,239.052Z" transform="translate(-85.788 -238.716)" fill="#ff7f62"/>
    <path id="Path_107" data-name="Path 107" d="M123.818,249.448a38.21,38.21,0,0,1,4.225.24,22.466,22.466,0,0,0-12.36-9.785,36.208,36.208,0,0,0-23.674,26.888A37.816,37.816,0,0,1,123.818,249.448Z" transform="translate(-86.427 -238.838)" fill="#ff7f62"/>
    <path id="Path_108" data-name="Path 108" d="M94.685,267.723a37.84,37.84,0,0,1,35.59,2.285,22.168,22.168,0,0,0-.921-17.108,36.019,36.019,0,0,0-34.67,14.822Z" transform="translate(-86.702 -240.133)" fill="#ff7f62"/>
    <path id="Path_109" data-name="Path 109" d="M91.193,276.888c0,.395.017.786.031,1.177a22.4,22.4,0,0,0,38.027-4.81,35.97,35.97,0,0,0-36.815-1.028c-.4.7-.788,1.412-1.145,2.141C91.233,275.2,91.193,276.041,91.193,276.888Z" transform="translate(-86.343 -241.688)" fill="#0e153d"/>
  </g>
</svg>
