<svg id="Dallas" xmlns="http://www.w3.org/2000/svg" width="179.46" height="40.273" viewBox="0 0 179.46 40.273">
  <g id="Group_89" data-name="Group 89" transform="translate(40.92 0.715)">
    <path id="Path_137" data-name="Path 137" d="M1120.417,279.5a15.487,15.487,0,0,1-6.291,1.289,13.557,13.557,0,0,1-10-4.2,13.893,13.893,0,0,1-4.152-10.13A14.135,14.135,0,0,1,1104.1,256.2a13.38,13.38,0,0,1,9.93-4.227,13.615,13.615,0,0,1,6.028,1.338,14.86,14.86,0,0,1,4.977,4.065V242.072h3.5v25.987a18.891,18.891,0,0,1-2.7,7.378A15.779,15.779,0,0,1,1120.417,279.5Zm1.713-5.29a10.922,10.922,0,0,0,3.152-7.979,11.335,11.335,0,0,0-1.4-5.615,10.2,10.2,0,0,0-4-3.977,11.053,11.053,0,0,0-5.5-1.463,10.492,10.492,0,0,0-5.365,1.463,10.7,10.7,0,0,0-4,4.127,11.252,11.252,0,0,0-1.488,5.565,11.075,11.075,0,0,0,1.475,5.552,10.8,10.8,0,0,0,3.964,4.065,10.587,10.587,0,0,0,5.465,1.463A10.394,10.394,0,0,0,1122.13,274.212Z" transform="translate(-1099.969 -242.072)" fill="#ee3665"/>
    <path id="Path_138" data-name="Path 138" d="M1152.662,253.11a13.624,13.624,0,0,1,10.506,4.577,14.154,14.154,0,0,1,3.851,9.93q.05,14.208,0,14.432h-3.727v-6.228q-2.926,5.454-10.629,6.1a13.421,13.421,0,0,1-10.293-4.29,14.719,14.719,0,0,1-.212-19.922A13.583,13.583,0,0,1,1152.662,253.11Zm0,3.452a10.119,10.119,0,0,0-7.528,3.252,10.871,10.871,0,0,0-3.152,7.853,11.271,11.271,0,0,0,1.439,5.565,10.085,10.085,0,0,0,3.889,3.977,10.678,10.678,0,0,0,5.352,1.388q9.38-.949,10.53-10.93a11.015,11.015,0,0,0-3.076-7.853A9.885,9.885,0,0,0,1152.662,256.562Z" transform="translate(-1103.914 -243.206)" fill="#ee3665"/>
    <path id="Path_139" data-name="Path 139" d="M1177.321,242.8h3.552V280.84h-3.552Z" transform="translate(-1107.913 -242.146)" fill="#ee3665"/>
    <path id="Path_140" data-name="Path 140" d="M1188.806,242.8h3.55V280.84h-3.55Z" transform="translate(-1109.093 -242.146)" fill="#ee3665"/>
    <path id="Path_141" data-name="Path 141" d="M1213.706,253.11a13.621,13.621,0,0,1,10.505,4.577,14.151,14.151,0,0,1,3.852,9.93q.05,14.208,0,14.432h-3.727v-6.228q-2.926,5.454-10.63,6.1a13.421,13.421,0,0,1-10.292-4.29,14.72,14.72,0,0,1-.213-19.922A13.586,13.586,0,0,1,1213.706,253.11Zm0,3.452a10.118,10.118,0,0,0-7.527,3.252,10.871,10.871,0,0,0-3.152,7.853,11.262,11.262,0,0,0,1.439,5.565,10.085,10.085,0,0,0,3.889,3.977,10.676,10.676,0,0,0,5.352,1.388q9.381-.949,10.531-10.93a11.016,11.016,0,0,0-3.076-7.853A9.886,9.886,0,0,0,1213.706,256.562Z" transform="translate(-1110.183 -243.206)" fill="#ee3665"/>
    <path id="Path_142" data-name="Path 142" d="M1252.466,256.812l-2.251,2.351q-2.851-2.751-5.527-2.751a4.209,4.209,0,0,0-2.951,1.125,3.513,3.513,0,0,0-1.225,2.677,3.814,3.814,0,0,0,1.025,2.5,13.36,13.36,0,0,0,4.227,2.926,15.445,15.445,0,0,1,5.352,3.927,7.266,7.266,0,0,1,1.375,4.327,7.7,7.7,0,0,1-2.363,5.69,8.071,8.071,0,0,1-5.916,2.339,10.581,10.581,0,0,1-4.538-1.013,9.483,9.483,0,0,1-3.565-2.839l2.226-2.526q2.7,3.051,5.728,3.051a5.124,5.124,0,0,0,3.589-1.363,4.2,4.2,0,0,0,1.489-3.189,4.106,4.106,0,0,0-.975-2.7,15.474,15.474,0,0,0-4.427-2.951,13.533,13.533,0,0,1-5.053-3.777,7.029,7.029,0,0,1-1.35-4.252,6.908,6.908,0,0,1,2.138-5.19,7.419,7.419,0,0,1,5.366-2.064Q1248.613,253.11,1252.466,256.812Z" transform="translate(-1113.951 -243.206)" fill="#ee3665"/>
  </g>
  <g id="Group_90" data-name="Group 90" transform="translate(0 0)">
    <path id="Path_143" data-name="Path 143" d="M1058.222,265.861l-3.55,10.226a5.454,5.454,0,0,0,5.151,7.243l8.578-24.711A10.776,10.776,0,0,0,1058.222,265.861Z" transform="translate(-1054.366 -243.056)" fill="#ee3665"/>
    <path id="Path_144" data-name="Path 144" d="M1073.544,258.619l-8.578,24.71h7.666l8.578-24.71Z" transform="translate(-1055.454 -243.056)" fill="#361c5c"/>
    <path id="Path_145" data-name="Path 145" d="M1088.6,248.532l-11.1,33.016a10.711,10.711,0,0,0,10.138-7.257l11.1-33.016A10.71,10.71,0,0,0,1088.6,248.532Z" transform="translate(-1056.742 -241.275)" fill="#361c5c"/>
  </g>
</svg>
