<svg id="Dismis" xmlns="http://www.w3.org/2000/svg" width="179.459" height="37.46" viewBox="0 0 179.459 37.46">
  <g id="Group_83" data-name="Group 83" transform="translate(0 0)">
    <path id="Path_120" data-name="Path 120" d="M563.83,242.842a18.73,18.73,0,0,1,0,37.46Z" transform="translate(-563.83 -242.842)" fill="#404da1"/>
    <path id="Path_121" data-name="Path 121" d="M605.309,242.842a18.73,18.73,0,1,0,0,37.46Z" transform="translate(-566.166 -242.842)" fill="#ef496b"/>
  </g>
  <g id="Group_84" data-name="Group 84" transform="translate(49.864 8.375)">
    <path id="Path_122" data-name="Path 122" d="M619.4,252.176H636.16l6.571,10.379-6.571,10.331H619.4Zm6.19,3.047v14.616h6.285l4.714-7.284-4.714-7.332Z" transform="translate(-619.401 -252.176)" fill="#404da1"/>
    <path id="Path_123" data-name="Path 123" d="M654.774,252.176v20.711h-6.19V252.176Z" transform="translate(-622.398 -252.176)" fill="#404da1"/>
    <path id="Path_124" data-name="Path 124" d="M681.269,272.887H662.6l-2.666-3.047H676.6l1.095-1.286v-4.522h-16.95v-8.57l2.809-3.285H684.7l-2.619,3.047H668.27l-1.333,1.523v4.238h17.044v8.76Z" transform="translate(-623.564 -252.176)" fill="#404da1"/>
    <path id="Path_125" data-name="Path 125" d="M691.084,252.176l12.76,8.284,12.76-8.284v20.711h-6.142V261.031l-6.618,4.189-6.57-4.189v11.855h-6.19Z" transform="translate(-626.763 -252.176)" fill="#404da1"/>
    <path id="Path_126" data-name="Path 126" d="M731.074,252.176v20.711h-6.19V252.176Z" transform="translate(-630.234 -252.176)" fill="#404da1"/>
    <path id="Path_127" data-name="Path 127" d="M757.569,272.887H738.9l-2.666-3.047H752.9L754,268.553v-4.522H737.048v-8.57l2.809-3.285H761l-2.618,3.047H744.57l-1.332,1.523v4.238h17.044v8.76Z" transform="translate(-631.401 -252.176)" fill="#404da1"/>
  </g>
</svg>
