<svg id="Lighton" xmlns="http://www.w3.org/2000/svg" width="175.028" height="44.865" viewBox="0 0 175.028 44.865">
  <g id="Group_80" data-name="Group 80" transform="translate(52.189 2.52)">
    <path id="Path_110" data-name="Path 110" d="M385.057,244.747v23.8q2.5,0,4.28-.117t4.671-.43c-.053.287-.1.586-.137.9a6.423,6.423,0,0,0-.058.782,6.2,6.2,0,0,0,.078.821c.052.365.091.651.118.86H379.2V244.747q.665,0,1.72.1c.7.066,1.106.1,1.211.1q.665,0,1.094-.039Q384.9,244.748,385.057,244.747Z" transform="translate(-379.195 -241.855)" fill="#2b246a"/>
    <path id="Path_111" data-name="Path 111" d="M400.1,245.178a3.019,3.019,0,0,1,.9-2.15,2.875,2.875,0,0,1,2.151-.939,3.065,3.065,0,0,1,2.189.9,2.919,2.919,0,0,1,.938,2.189,2.958,2.958,0,0,1-.92,2.168,3,3,0,0,1-2.206.919,2.881,2.881,0,0,1-2.17-.919A3.026,3.026,0,0,1,400.1,245.178Zm.392,26.107V252.33q.665.079,1.5.137c.561.039.957.058,1.193.058a14.249,14.249,0,0,0,1.563-.078q.7-.078,1.134-.118v18.955a9.366,9.366,0,0,0-.979-.078q-1.366-.117-1.718-.118a14.271,14.271,0,0,0-1.564.078C401.158,271.221,400.778,271.259,400.493,271.285Z" transform="translate(-381.342 -241.582)" fill="#2b246a"/>
    <path id="Path_112" data-name="Path 112" d="M428.519,253.228l-.039,1.8-3.518-.117a5.511,5.511,0,0,1,2.072,4.377,5.6,5.6,0,0,1-2.345,4.846,9.967,9.967,0,0,1-5.9,1.563h-.664a1.44,1.44,0,0,0-1.055.293,1.856,1.856,0,0,0-.371.528,1.191,1.191,0,0,0-.1.469,1.683,1.683,0,0,0,.86,1.583,4.667,4.667,0,0,0,2.307.488l3.36.118a6.1,6.1,0,0,1,4.456,1.407,4.923,4.923,0,0,1,1.25,3.635,7.28,7.28,0,0,1-3.2,6.292,11.884,11.884,0,0,1-7.074,2.033,11.105,11.105,0,0,1-5.08-1.056,4.411,4.411,0,0,1-2.7-4.142,4.334,4.334,0,0,1,.861-2.7,5.043,5.043,0,0,1,2.344-1.681l.587-.352-.273-.313a2.75,2.75,0,0,1-1.915-2.892,3.793,3.793,0,0,1,1-2.442,4.132,4.132,0,0,1,2.053-1.465l.587-.156q-4.967-1.174-4.965-6.254a4.944,4.944,0,0,1,2.325-4.553,12.294,12.294,0,0,1,6.431-1.427l3.986.118Zm-13.992,21.887a2.222,2.222,0,0,0-.156.664,7.6,7.6,0,0,0-.039.782,3.87,3.87,0,0,0,1.6,3.322,5.991,5.991,0,0,0,3.633,1.055,4.76,4.76,0,0,0,3.459-1.308,4.1,4.1,0,0,0,1.348-3.029,3.242,3.242,0,0,0-1.8-3.283,10.812,10.812,0,0,0-3.987-.508,6.824,6.824,0,0,0-2.539.352A2.654,2.654,0,0,0,414.526,275.114Zm2.071-15.36a6.551,6.551,0,0,0,.732,3.439,1.918,1.918,0,0,0,1.731,1.016q1.577,0,2.155-1.915a11.933,11.933,0,0,0,.345-3.283,8.633,8.633,0,0,0-.384-2.814,2.052,2.052,0,0,0-1.961-1.641q-1.618,0-2.232,1.915A10.95,10.95,0,0,0,416.6,259.755Z" transform="translate(-382.438 -242.714)" fill="#2b246a"/>
    <path id="Path_113" data-name="Path 113" d="M439.165,241.524v13.444a9.724,9.724,0,0,1,2.619-2.11,6.382,6.382,0,0,1,3.166-.939,6.28,6.28,0,0,1,4.573,1.8,4.661,4.661,0,0,1,1.328,2.11,10.876,10.876,0,0,1,.312,2.852v12.546a9.312,9.312,0,0,0-.976-.078q-1.367-.117-1.719-.118a14.218,14.218,0,0,0-1.563.078c-.468.053-.848.091-1.133.118V261.5a12.977,12.977,0,0,0-.548-4.495,2.666,2.666,0,0,0-2.658-1.8,3.007,3.007,0,0,0-3.048,2.579,18.985,18.985,0,0,0-.352,4.457v8.988a9.348,9.348,0,0,0-.976-.078q-1.37-.117-1.72-.118a14.27,14.27,0,0,0-1.564.078q-.7.079-1.133.118v-29.7c.443.052.944.1,1.5.136s.958.059,1.193.059a13.853,13.853,0,0,0,1.564-.079Q438.733,241.564,439.165,241.524Z" transform="translate(-384.8 -241.524)" fill="#2b246a"/>
    <path id="Path_114" data-name="Path 114" d="M464.342,255.225v11.138a7.8,7.8,0,0,0,.333,2.717q.332.8,1.582.8a6.5,6.5,0,0,0,1.72-.274v1.524a11.9,11.9,0,0,1-4.064.9,4.4,4.4,0,0,1-3.988-1.8,8.366,8.366,0,0,1-.977-4.533V255.225h-2.657a3.245,3.245,0,0,0,.078-.7v-1.8h2.579v-4.39q.978-.389,2.541-1.088t2.853-1.322v6.8h3.323c-.026.234-.047.476-.059.723s-.02.424-.02.528v1.251Z" transform="translate(-387.113 -241.976)" fill="#2b246a"/>
    <path id="Path_115" data-name="Path 115" d="M481.033,272.769a9.427,9.427,0,0,1-6.917-2.54,9.214,9.214,0,0,1-2.58-6.879,10.683,10.683,0,0,1,2.521-7.465,9,9,0,0,1,7.015-2.775,9.682,9.682,0,0,1,7.037,2.5,9.133,9.133,0,0,1,2.578,6.879,10.56,10.56,0,0,1-2.5,7.347A9.181,9.181,0,0,1,481.033,272.769Zm.275-17.9a3.308,3.308,0,0,0-3.167,2.423,21.668,21.668,0,0,0-.274,10.748q.9,2.971,3.166,2.97,2.071,0,3.048-2.931a19.676,19.676,0,0,0,.821-6.214,12.478,12.478,0,0,0-.781-4.924A3.013,3.013,0,0,0,481.308,254.87Z" transform="translate(-388.679 -242.714)" fill="#2b246a"/>
    <path id="Path_116" data-name="Path 116" d="M496.71,272.417V253.462c.417.053.893.1,1.427.137s.931.058,1.193.058a12.7,12.7,0,0,0,1.5-.078c.431-.052.788-.092,1.075-.118v2.893a11.219,11.219,0,0,1,2.657-2.306,6.559,6.559,0,0,1,3.361-.939q3.479,0,4.924,2.149,1.25,1.839,1.251,5.707v11.451a9.326,9.326,0,0,0-.977-.078q-1.368-.117-1.718-.118a14.234,14.234,0,0,0-1.564.078c-.468.053-.848.091-1.133.118v-9.731a12.978,12.978,0,0,0-.548-4.495,2.666,2.666,0,0,0-2.658-1.8q-2.226,0-2.97,2.579a17.185,17.185,0,0,0-.429,4.457v8.988a9.36,9.36,0,0,0-.977-.078q-1.37-.117-1.72-.118a14.293,14.293,0,0,0-1.564.078Q497.141,272.379,496.71,272.417Z" transform="translate(-391.264 -242.714)" fill="#2b246a"/>
  </g>
  <g id="Group_81" data-name="Group 81" transform="translate(0 0)">
    <path id="Path_117" data-name="Path 117" d="M321.032,254.852v20.673a9.992,9.992,0,0,0,9.992-9.991V244.86A9.992,9.992,0,0,0,321.032,254.852Z" transform="translate(-321.032 -239.347)" fill="#20d3c2"/>
    <path id="Path_118" data-name="Path 118" d="M338.311,248.708v29.876a5,5,0,0,0,9.992,0V238.716A9.993,9.993,0,0,0,338.311,248.708Z" transform="translate(-322.807 -238.716)" fill="#20d3c2"/>
    <path id="Path_119" data-name="Path 119" d="M355.591,253.308V266.4a9.992,9.992,0,0,0,9.992,9.991V263.3A9.993,9.993,0,0,0,355.591,253.308Z" transform="translate(-324.581 -240.215)" fill="#20d3c2"/>
  </g>
</svg>
