<svg id="Rosimo" xmlns="http://www.w3.org/2000/svg" width="150.105" height="44.865" viewBox="0 0 150.105 44.865">
  <g id="Group_86" data-name="Group 86" transform="translate(55.125 11.653)">
    <path id="Path_128" data-name="Path 128" d="M1081.72,547.848V526.436h9.36a7.52,7.52,0,0,1,2.341.336,4.941,4.941,0,0,1,1.828,1.083,4.819,4.819,0,0,1,1.244,2.076,10.187,10.187,0,0,1,.438,3.174,11.921,11.921,0,0,1-.263,2.662,7.277,7.277,0,0,1-.585,1.741,3.486,3.486,0,0,1-.877,1.053,3.833,3.833,0,0,1-.849.571q-.294.117-.848.292l4.066,8.425h-4.622l-3.54-8.1-3.6-.409v8.513Zm4.124-11.73h4.855a3.461,3.461,0,0,0,.937-.1,1.306,1.306,0,0,0,.628-.424,2.071,2.071,0,0,0,.41-.922,7.517,7.517,0,0,0,.132-1.565,3.963,3.963,0,0,0-.527-2.384,1.9,1.9,0,0,0-1.58-.658h-4.855Z" transform="translate(-1081.72 -526.436)" fill="#1d1753"/>
    <path id="Path_129" data-name="Path 129" d="M1101.051,540.957a18.358,18.358,0,0,1,.351-3.949,5.257,5.257,0,0,1,1.228-2.486,4.754,4.754,0,0,1,2.18-1.316,12.114,12.114,0,0,1,3.321-.38q4.007,0,5.543,1.755t1.535,6.377q0,4.358-1.506,6.026t-5.571,1.667a12.385,12.385,0,0,1-2.8-.278,6.125,6.125,0,0,1-2.017-.833,4.053,4.053,0,0,1-1.331-1.477,7.119,7.119,0,0,1-.717-2.165A17.033,17.033,0,0,1,1101.051,540.957Zm4.1,0a14.929,14.929,0,0,0,.147,2.369,2.648,2.648,0,0,0,.54,1.332,1.694,1.694,0,0,0,.893.571,6.48,6.48,0,0,0,1.4.117,9.585,9.585,0,0,0,1.213-.058,2.162,2.162,0,0,0,.818-.293,1.4,1.4,0,0,0,.586-.731,5.347,5.347,0,0,0,.278-1.272,18.865,18.865,0,0,0,.088-2.033q0-1.345-.074-2.18a6.917,6.917,0,0,0-.249-1.4,1.432,1.432,0,0,0-.556-.818,2.532,2.532,0,0,0-.848-.352,6.136,6.136,0,0,0-1.257-.1,7.779,7.779,0,0,0-1.054.058,2.58,2.58,0,0,0-.789.249,1.373,1.373,0,0,0-.572.5,3.266,3.266,0,0,0-.336.862,6.848,6.848,0,0,0-.189,1.317Q1105.147,539.846,1105.146,540.957Z" transform="translate(-1083.705 -527.092)" fill="#1d1753"/>
    <path id="Path_130" data-name="Path 130" d="M1119.079,538.354v-1.346q0-4.183,4.036-4.183,6.934,0,8.307.79v2.573h-7.049a2.84,2.84,0,0,0-.629.058.645.645,0,0,0-.366.205.846.846,0,0,0-.161.321,2.13,2.13,0,0,0-.044.5v.7q0,.673.293.834a1.951,1.951,0,0,0,.907.161h3.685a5.281,5.281,0,0,1,1.887.307,3.151,3.151,0,0,1,1.287.863,3.66,3.66,0,0,1,.718,1.272,5.015,5.015,0,0,1,.234,1.565v1.609q0,3.51-2.955,4.008a6.065,6.065,0,0,1-.849.058q-7.372,0-8.658-.849v-2.545h7.342a.892.892,0,0,0,1.024-.994v-.731a1.685,1.685,0,0,0-.074-.556.579.579,0,0,0-.306-.321,1.463,1.463,0,0,0-.644-.117h-3.627a4.724,4.724,0,0,1-3.247-.994A4.079,4.079,0,0,1,1119.079,538.354Z" transform="translate(-1085.557 -527.092)" fill="#1d1753"/>
    <path id="Path_131" data-name="Path 131" d="M1135.868,530.031v-2.574q0-.76.7-.761h3.071c.428,0,.643.254.643.761v2.574a.71.71,0,0,1-.161.5.625.625,0,0,1-.483.175h-3.071a.883.883,0,0,1-.366-.073.523.523,0,0,1-.248-.234A.741.741,0,0,1,1135.868,530.031Zm.146,17.844V532.342h4.1v15.533Z" transform="translate(-1087.281 -526.463)" fill="#1d1753"/>
    <path id="Path_132" data-name="Path 132" d="M1143.528,548.494V532.961h3.276l.819,1.667c.059-.039.136-.1.234-.176q.643-.437.98-.658a8.843,8.843,0,0,1,.936-.511,5.222,5.222,0,0,1,1.244-.424,7.152,7.152,0,0,1,1.433-.132q3.014,0,4.037,2.019a9.368,9.368,0,0,1,5.588-2.019q4.621,0,4.622,5.471v10.3h-4.1V538.139a2.366,2.366,0,0,0-.453-1.579,1.591,1.591,0,0,0-1.273-.527q-.38,0-.73.029c-.234.021-.464.049-.688.088a6.441,6.441,0,0,0-.642.146,4.512,4.512,0,0,0-.6.22,3.776,3.776,0,0,0-.571.321q-.277.191-.57.424c0,.02,0,.074.014.161a2.7,2.7,0,0,1,.015.277v10.794h-4.1V538.139a3.412,3.412,0,0,0-.117-.936,1.577,1.577,0,0,0-.351-.658,1.559,1.559,0,0,0-.555-.38,1.839,1.839,0,0,0-.7-.132,6.134,6.134,0,0,0-1.4.146,4.343,4.343,0,0,0-1.112.424,11.912,11.912,0,0,0-1.141.746v11.145Z" transform="translate(-1088.068 -527.082)" fill="#1d1753"/>
    <path id="Path_133" data-name="Path 133" d="M1171.792,540.957a18.358,18.358,0,0,1,.351-3.949,5.257,5.257,0,0,1,1.228-2.486,4.755,4.755,0,0,1,2.18-1.316,12.114,12.114,0,0,1,3.321-.38q4.007,0,5.543,1.755t1.535,6.377q0,4.358-1.508,6.026t-5.571,1.667a12.373,12.373,0,0,1-2.794-.278,6.129,6.129,0,0,1-2.018-.833,4.052,4.052,0,0,1-1.331-1.477,7.115,7.115,0,0,1-.717-2.165A17.045,17.045,0,0,1,1171.792,540.957Zm4.1,0a14.943,14.943,0,0,0,.147,2.369,2.656,2.656,0,0,0,.54,1.332,1.694,1.694,0,0,0,.893.571,6.481,6.481,0,0,0,1.4.117,9.578,9.578,0,0,0,1.213-.058,2.172,2.172,0,0,0,.819-.293,1.389,1.389,0,0,0,.585-.731,5.352,5.352,0,0,0,.278-1.272,18.9,18.9,0,0,0,.088-2.033q0-1.345-.074-2.18a6.917,6.917,0,0,0-.249-1.4,1.435,1.435,0,0,0-.555-.818,2.536,2.536,0,0,0-.849-.352,6.13,6.13,0,0,0-1.257-.1,7.753,7.753,0,0,0-1.053.058,2.576,2.576,0,0,0-.79.249,1.372,1.372,0,0,0-.572.5,3.239,3.239,0,0,0-.336.862,6.778,6.778,0,0,0-.19,1.317Q1175.888,539.846,1175.887,540.957Z" transform="translate(-1090.971 -527.092)" fill="#1d1753"/>
  </g>
  <g id="Group_87" data-name="Group 87" transform="translate(0 0)">
    <path id="Path_134" data-name="Path 134" d="M1050.152,554.612c-7.5,12.132,1.463-12.627-21.764,1.363a22.429,22.429,0,0,0,35.64-7.374C1059.706,547.511,1054.25,547.983,1050.152,554.612Z" transform="translate(-1021.117 -517.013)" fill="#1d1753"/>
    <path id="Path_135" data-name="Path 135" d="M1041.865,544.331c6.3,5.368,5.55,6.173,9.41.5,2.127-3.126,7.683-1.2,12.247,1.163a22.433,22.433,0,0,0,.474-15.57c-5.123-1.334-11.643-.838-16.526,7.062-9,14.551,2.074-15.86-27.045,2.445a22.344,22.344,0,0,0,5.9,12.922C1030.408,547.9,1037.554,540.659,1041.865,544.331Z" transform="translate(-1020.299 -515.133)" fill="#31419a"/>
    <path id="Path_136" data-name="Path 136" d="M1038.64,525.881c7.438,6.337,6.55,7.287,11.107.589,2.4-3.536,8.53-1.594,13.777,1.027a22.432,22.432,0,0,0-43.239,8.384c0,.021,0,.041,0,.063C1025.112,530.1,1033.552,521.546,1038.64,525.881Z" transform="translate(-1020.285 -513.449)" fill="#68cce7"/>
  </g>
</svg>
