<svg xmlns="http://www.w3.org/2000/svg" xmlns:xlink="http://www.w3.org/1999/xlink" width="556.817" height="266.69" viewBox="0 0 556.817 266.69">
  <defs>
    <linearGradient id="linear-gradient" x1="0.853" y1="0.146" x2="-5.015" y2="6.035" gradientUnits="objectBoundingBox">
      <stop offset="0" stop-color="#b3b3b3"/>
      <stop offset="0.197" stop-color="#f2f2f2"/>
      <stop offset="0.592" stop-color="#b3b3b3"/>
      <stop offset="0.808" stop-color="#ccc"/>
      <stop offset="1" stop-color="#666"/>
    </linearGradient>
    <linearGradient id="linear-gradient-2" x1="0.809" y1="0.262" x2="-2.259" y2="2.631" xlink:href="#linear-gradient"/>
    <linearGradient id="linear-gradient-3" y1="0.5" x2="1" y2="0.5" gradientUnits="objectBoundingBox">
      <stop offset="0" stop-color="#fff"/>
      <stop offset="1" stop-color="#b3b3b3"/>
    </linearGradient>
    <linearGradient id="linear-gradient-4" x1="1.184" y1="0.138" x2="0.081" y2="0.677" xlink:href="#linear-gradient"/>
    <linearGradient id="linear-gradient-6" x1="4.467" y1="-3.481" x2="-1.401" y2="2.408" xlink:href="#linear-gradient"/>
    <linearGradient id="linear-gradient-7" x1="2.762" y1="-1.247" x2="-0.306" y2="1.122" xlink:href="#linear-gradient"/>
    <linearGradient id="linear-gradient-9" x1="3.224" y1="-0.266" x2="-0.751" y2="0.925" xlink:href="#linear-gradient"/>
    <linearGradient id="linear-gradient-10" x1="0.224" y1="1.054" x2="0.748" y2="0.165" gradientUnits="objectBoundingBox">
      <stop offset="0" stop-color="#c8c7c8"/>
      <stop offset="0.007" stop-color="#bcbabb"/>
      <stop offset="0.027" stop-color="#a09e9f"/>
      <stop offset="0.047" stop-color="#8c898a"/>
      <stop offset="0.067" stop-color="#807d7e"/>
      <stop offset="0.086" stop-color="#7c797a"/>
      <stop offset="0.171" stop-color="#7f7c7d"/>
      <stop offset="0.248" stop-color="#8a8788"/>
      <stop offset="0.322" stop-color="#9c9a9a"/>
      <stop offset="0.394" stop-color="#b5b4b4"/>
      <stop offset="0.464" stop-color="#d5d5d5"/>
      <stop offset="0.495" stop-color="#e6e6e6"/>
      <stop offset="0.545" stop-color="#d3d3d3"/>
      <stop offset="0.646" stop-color="#b4b3b4"/>
      <stop offset="0.744" stop-color="#9e9d9e"/>
      <stop offset="0.837" stop-color="#918f91"/>
      <stop offset="0.919" stop-color="#8d8b8d"/>
      <stop offset="0.951" stop-color="#a7a6a6"/>
      <stop offset="0.979" stop-color="#b8b7b7"/>
      <stop offset="1" stop-color="#bebdbd"/>
    </linearGradient>
    <linearGradient id="linear-gradient-11" x1="0.182" y1="0.988" x2="0.811" y2="0.244" gradientUnits="objectBoundingBox">
      <stop offset="0" stop-color="#e6e6e6"/>
      <stop offset="0.11" stop-color="#d3d3d3"/>
      <stop offset="0.328" stop-color="#b4b3b4"/>
      <stop offset="0.541" stop-color="#9e9d9e"/>
      <stop offset="0.741" stop-color="#918f91"/>
      <stop offset="0.919" stop-color="#8d8b8d"/>
    </linearGradient>
    <linearGradient id="linear-gradient-12" x1="0.155" y1="1.099" x2="0.89" y2="0.233" xlink:href="#linear-gradient-10"/>
    <linearGradient id="linear-gradient-13" x1="0.182" y1="1.11" x2="0.812" y2="0.365" xlink:href="#linear-gradient-11"/>
    <linearGradient id="linear-gradient-14" x1="0.182" y1="0.994" x2="0.811" y2="0.25" gradientUnits="objectBoundingBox">
      <stop offset="0.081" stop-color="#8d8b8d"/>
      <stop offset="0.259" stop-color="#918f91"/>
      <stop offset="0.459" stop-color="#9e9d9e"/>
      <stop offset="0.672" stop-color="#b4b3b4"/>
      <stop offset="0.89" stop-color="#d3d3d3"/>
      <stop offset="1" stop-color="#e6e6e6"/>
    </linearGradient>
  </defs>
  <g id="_404" data-name="404" transform="translate(-681.503 -346.016)">
    <g id="Group_1003" data-name="Group 1003">
      <path id="Path_458" data-name="Path 458" d="M1217.037,481.652l-27.352-14.879,21.283-2.991,27.352,14.879Z" fill="#a3a3a3"/>
    </g>
    <g id="Group_1004" data-name="Group 1004">
      <path id="Path_459" data-name="Path 459" d="M1167.4,560.6l-27.352-14.879.053-28.583,27.352,14.879Z" fill="#757575"/>
    </g>
    <g id="Group_1005" data-name="Group 1005">
      <path id="Path_460" data-name="Path 460" d="M1123.214,497.1l-27.352-14.879,45.8-6.436,27.352,14.879Z" fill="#a3a3a3"/>
    </g>
    <g id="Group_1006" data-name="Group 1006">
      <path id="Path_461" data-name="Path 461" d="M1169.01,490.667l-27.352-14.879.16-85.888,27.352,14.879Z" fill="#757575"/>
    </g>
    <g id="Group_1007" data-name="Group 1007">
      <path id="Path_462" data-name="Path 462" d="M1079.577,544.371l-27.352-14.879.087-46.887,27.352,14.879Z" fill="#757575"/>
    </g>
    <g id="Group_1008" data-name="Group 1008">
      <path id="Path_463" data-name="Path 463" d="M1144.734,371.088l-27.352-14.879,72.527-10.193,27.352,14.879Z" fill="url(#linear-gradient)"/>
    </g>
    <path id="Path_464" data-name="Path 464" d="M1082.109,492.05q.805-1.777,1.62-3.558l.368-.806q.97-2.117,1.955-4.239c.163-.353.329-.708.493-1.061q.8-1.719,1.609-3.443.252-.538.505-1.076,1.011-2.145,2.039-4.306c.119-.25.24-.5.359-.751q.877-1.838,1.77-3.689.294-.611.589-1.22,1.022-2.115,2.064-4.249c.032-.064.062-.126.093-.19q1.083-2.214,2.195-4.46l.623-1.257q.924-1.863,1.867-3.747l.451-.9q1.143-2.277,2.317-4.594c.191-.377.385-.758.578-1.137q.957-1.886,1.937-3.8l.618-1.206q1.219-2.378,2.474-4.8c.138-.266.279-.536.417-.8q1.086-2.092,2.2-4.224.352-.675.708-1.352,1.243-2.371,2.521-4.79l.168-.32q1.355-2.561,2.756-5.188l.756-1.417q1.168-2.186,2.367-4.417c.2-.368.392-.731.592-1.1q1.063-1.977,2.155-3.993c.125-.23.246-.454.37-.684q1.278-2.361,2.594-4.775l.766-1.4c.628-1.15,1.258-2.3,1.9-3.473.332-.607.671-1.222,1.007-1.834q.873-1.592,1.759-3.2l1.089-1.976q.867-1.57,1.747-3.162.58-1.047,1.164-2.1.879-1.587,1.777-3.2c.39-.7.778-1.4,1.173-2.11.654-1.176,1.32-2.368,1.986-3.563l1.036-1.856q1.527-2.73,3.094-5.525l-27.351-14.879q-1.575,2.806-3.1,5.54c-.339.606-.669,1.2-1.005,1.8l-2.011,3.607-1.164,2.093q-.9,1.614-1.78,3.208-.6,1.074-1.183,2.136-.865,1.564-1.715,3.106c-.374.677-.747,1.354-1.116,2.024q-.876,1.592-1.734,3.155c-.342.622-.685,1.248-1.023,1.865-.642,1.172-1.273,2.328-1.9,3.48-.252.463-.51.933-.76,1.394q-1.318,2.418-2.6,4.786c-.116.212-.226.418-.341.63q-1.094,2.021-2.163,4.007l-.2.366-.436.814q-1.185,2.207-2.34,4.368-.379.709-.756,1.416c-.933,1.75-1.857,3.487-2.761,5.2l-.15.285q-1.281,2.424-2.521,4.79l-.732,1.4q-1.1,2.111-2.181,4.184l-.43.829q-1.252,2.417-2.465,4.781l-.635,1.239q-.97,1.895-1.919,3.762l-.586,1.155q-1.173,2.313-2.316,4.591l-.451.9q-.945,1.887-1.869,3.751-.309.624-.618,1.247-1.111,2.248-2.2,4.472l-.074.154q-1.056,2.157-2.085,4.29-.292.6-.581,1.2-.9,1.859-1.776,3.7l-.353.74q-1.029,2.158-2.036,4.3-.258.548-.514,1.094-.81,1.723-1.609,3.442c-.163.351-.327.7-.489,1.052q-.986,2.124-1.956,4.241c-.124.271-.246.541-.37.812q-.808,1.767-1.608,3.533-.273.6-.543,1.2-.961,2.126-1.911,4.253l27.352,14.879q.953-2.136,1.918-4.27Z" fill="url(#linear-gradient-2)"/>
    <path id="Path_465" data-name="Path 465" d="M1217.037,481.652l21.283-2.991-.08,43.411-21.284,2.991-.053,28.584-49.5,6.957.053-28.583-87.875,12.35.087-46.887c16.028-35.9,33.911-70.872,65.071-126.4l72.526-10.193Zm-48.027,9.015.16-85.889-.994.14c-18.248,32.748-30.165,54.848-44.959,90.585l0,1.6,45.8-6.436" fill="url(#linear-gradient-3)"/>
    <path id="Path_466" data-name="Path 466" d="M1169.455,529.72l-87.874,12.349.082-44.157c16.249-36.359,34.341-71.51,64.331-124.981l69.263-9.734-.224,120.757,21.283-2.992-.074,39.371-21.283,2.991-.053,28.583-45.5,6.4Zm-2.542-126.644-.484.868c-18.092,32.47-30.153,54.784-45.059,90.794l-.151.366-.011,4.3,49.8-7,.167-89.929Z" fill="#c9c9c9"/>
    <path id="Path_467" data-name="Path 467" d="M884.5,499.1q.114-2.364.333-4.713c.006-.06.01-.12.015-.18q.217-2.313.534-4.608c.011-.081.02-.162.032-.243q.315-2.26.724-4.5c.019-.1.035-.205.054-.307q.408-2.209.907-4.4c.026-.119.051-.24.079-.359.331-1.44.694-2.871,1.08-4.293.036-.134.071-.269.108-.4q.582-2.112,1.247-4.195c.046-.144.09-.289.136-.433q.664-2.062,1.408-4.1c.058-.16.114-.321.174-.481q.622-1.686,1.3-3.35.133-.33.269-.658.69-1.676,1.428-3.326c.06-.134.123-.267.184-.4q.723-1.6,1.494-3.166c.063-.131.125-.263.19-.393q.8-1.619,1.654-3.209c.12-.224.239-.448.36-.672.48-.883.967-1.762,1.468-2.632.013-.025.027-.05.041-.074.515-.892,1.045-1.775,1.582-2.652.143-.234.289-.468.434-.7q.688-1.107,1.4-2.2c.1-.15.193-.3.292-.45q.84-1.275,1.714-2.523c.153-.219.309-.437.464-.655q.637-.9,1.293-1.791c.167-.227.333-.454.5-.679.582-.779,1.17-1.552,1.771-2.314l.054-.068q.877-1.11,1.781-2.2.271-.327.547-.652.709-.845,1.436-1.673c.174-.2.345-.4.519-.593q.963-1.086,1.951-2.147c.1-.106.2-.21.3-.316q.854-.908,1.725-1.794.3-.309.611-.615.805-.809,1.628-1.6c.161-.155.32-.312.483-.467q1.041-.99,2.108-1.953c.148-.134.3-.265.448-.4q.959-.855,1.935-1.687c.2-.167.393-.336.592-.5q1.164-.978,2.353-1.925c.109-.086.22-.17.329-.256q1.056-.83,2.131-1.631c.212-.159.424-.318.638-.475.819-.6,1.643-1.2,2.477-1.773l.082-.056q1.581-1.091,3.2-2.118c.122-.078.242-.158.364-.235q1.567-.988,3.168-1.916c.179-.1.359-.21.539-.313q1.574-.9,3.178-1.747c.188-.1.377-.2.566-.295q1.627-.843,3.283-1.628c.18-.085.363-.167.544-.251q1.148-.534,2.309-1.035c.222-.1.444-.194.667-.288q1.383-.586,2.782-1.129c.167-.065.337-.126.505-.19q1.2-.456,2.417-.88c.239-.083.478-.167.717-.249.949-.322,1.9-.632,2.861-.923.136-.042.273-.079.41-.12q1.273-.379,2.559-.721c.25-.067.5-.133.749-.2.977-.251,1.957-.491,2.943-.71l.248-.052q1.372-.3,2.757-.554.389-.072.777-.141c1-.177,2.006-.342,3.016-.484,1.246-.175,2.482-.314,3.715-.433.388-.038.773-.064,1.16-.1.853-.071,1.7-.131,2.552-.175q.651-.033,1.3-.056,1.242-.045,2.474-.049c.4,0,.8-.008,1.194-.005q1.528.015,3.038.088c.179.008.36.009.539.019,1.181.064,2.353.159,3.517.275.339.034.673.079,1.01.117.832.094,1.659.2,2.481.318.408.059.812.124,1.217.19q1.153.189,2.295.411c.388.075.777.149,1.162.23q1.3.276,2.589.6c.251.062.506.117.757.182q1.677.435,3.321.946c.284.088.563.186.846.277q1.227.4,2.438.831c.365.133.729.27,1.091.408q1.119.424,2.219.886c.337.141.676.279,1.011.424q1.395.607,2.76,1.269c.113.055.23.1.343.161q1.35.663,2.671,1.381L994.2,388.423q-1.319-.717-2.669-1.381c-.018-.008-.035-.018-.053-.027-.1-.049-.2-.091-.3-.139q-1.359-.66-2.747-1.263c-.336-.146-.676-.285-1.013-.426q-1.1-.459-2.22-.886c-.362-.137-.724-.274-1.09-.406q-1.209-.438-2.44-.833c-.282-.091-.561-.189-.844-.276q-1.644-.51-3.322-.946c-.045-.012-.089-.027-.134-.039-.205-.052-.415-.092-.62-.143-.859-.213-1.722-.415-2.593-.6-.383-.081-.77-.154-1.156-.23q-1.146-.222-2.3-.411c-.4-.066-.806-.131-1.211-.19-.824-.121-1.653-.224-2.486-.319-.336-.038-.67-.083-1.008-.116-1.165-.117-2.337-.211-3.518-.275-.176-.01-.354-.011-.53-.019q-1.515-.072-3.046-.088c-.4,0-.795,0-1.193.005q-1.234.006-2.477.049c-.431.016-.861.034-1.294.056-.848.044-1.7.1-2.555.174-.386.032-.771.058-1.159.1-1.232.118-2.469.257-3.715.432-1.009.142-2.014.308-3.016.485q-.388.069-.777.141-1.383.256-2.757.554l-.248.052c-.986.218-1.966.458-2.943.71-.249.064-.5.131-.747.2q-1.289.344-2.568.724c-.133.04-.267.077-.4.117q-1.441.438-2.865.925c-.238.081-.474.164-.711.247q-1.219.424-2.427.883c-.165.063-.332.123-.5.187q-1.4.541-2.786,1.13c-.221.094-.441.191-.661.286q-1.164.5-2.315,1.037c-.13.061-.263.116-.393.177-.05.023-.1.05-.149.074q-1.657.781-3.287,1.63c-.186.1-.373.193-.559.291q-1.606.844-3.184,1.75c-.178.1-.355.206-.533.309q-1.6.932-3.172,1.92c-.121.076-.24.155-.361.232q-1.618,1.032-3.2,2.122c-.019.013-.039.025-.058.039l-.02.014c-.835.578-1.66,1.173-2.48,1.776-.212.155-.423.313-.633.47q-1.077.8-2.135,1.635c-.109.086-.22.169-.328.255q-1.191.945-2.357,1.927c-.2.164-.389.33-.583.5q-.983.837-1.947,1.7c-.1.092-.21.18-.313.273-.042.037-.083.077-.125.115q-1.07.965-2.114,1.959c-.159.151-.315.3-.473.457q-.827.795-1.638,1.607c-.2.2-.405.407-.606.611q-.87.887-1.724,1.792c-.1.108-.2.213-.3.321q-.99,1.061-1.951,2.147c-.058.065-.117.128-.175.193-.115.13-.225.264-.339.4q-.729.832-1.443,1.68c-.181.215-.363.43-.542.647q-.9,1.089-1.783,2.2c-.017.023-.036.045-.054.068-.6.762-1.19,1.536-1.772,2.314-.168.225-.334.452-.5.678q-.654.889-1.294,1.792c-.1.143-.208.284-.309.428-.052.075-.1.151-.153.226q-.873,1.25-1.715,2.523c-.1.149-.194.3-.292.451q-.711,1.089-1.4,2.2c-.145.234-.29.467-.433.7-.537.877-1.067,1.758-1.581,2.65l-.048.085c-.5.866-.983,1.741-1.46,2.621-.063.115-.129.228-.191.343s-.113.223-.172.333q-.849,1.59-1.653,3.207c-.065.131-.127.262-.191.393q-.768,1.569-1.491,3.161c-.061.136-.125.27-.186.406q-.742,1.652-1.429,3.328c-.089.217-.179.435-.267.653q-.675,1.665-1.3,3.353c-.024.063-.051.126-.074.19-.035.095-.065.193-.1.289q-.739,2.033-1.408,4.1c-.046.146-.09.292-.137.438q-.662,2.082-1.246,4.192c-.037.134-.072.268-.108.4q-.579,2.133-1.079,4.291c-.028.121-.054.243-.081.364q-.495,2.184-.906,4.391c-.019.1-.035.209-.054.313q-.406,2.236-.724,4.495c-.012.083-.021.167-.032.25q-.315,2.292-.534,4.6c0,.06-.009.121-.015.181q-.216,2.346-.332,4.71l0,.1q-.114,2.406-.12,4.824c-.064,34.285,16.464,62.054,41.415,75.627l27.352,14.879c-24.951-13.573-41.479-41.342-41.415-75.626q0-2.422.12-4.829C884.5,499.169,884.5,499.136,884.5,499.1Z" fill="url(#linear-gradient-4)"/>
    <path id="Path_468" data-name="Path 468" d="M973.856,395.1c49.312-6.931,89.212,30.593,89.113,83.826S1022.81,580.925,973.5,587.855s-89.22-30.593-89.121-83.825S924.536,402.035,973.856,395.1Z" fill="url(#linear-gradient-3)"/>
    <path id="Path_469" data-name="Path 469" d="M961.854,586.68A72.537,72.537,0,0,1,910.1,565.421c-15.343-15.371-23.769-37.172-23.724-61.387.1-52.185,39.465-100.163,87.758-106.95a81.966,81.966,0,0,1,11.362-.805,72.533,72.533,0,0,1,51.748,21.258c15.344,15.372,23.77,37.174,23.725,61.389-.1,52.185-39.462,100.162-87.75,106.949A82.017,82.017,0,0,1,961.854,586.68Z" fill="#c9c9c9"/>
    <path id="Path_470" data-name="Path 470" d="M961.854,563.68a49.039,49.039,0,0,1-35.475-14.507c-11-11.018-17.035-27.034-17-45.1a88.992,88.992,0,0,1,20.6-56c12.91-15.716,29.729-25.735,47.359-28.213a58.945,58.945,0,0,1,8.161-.581,49.03,49.03,0,0,1,35.469,14.506c11,11.019,17.037,27.035,17,45.1a89,89,0,0,1-20.6,56c-12.909,15.716-29.726,25.734-47.352,28.212A59.008,59.008,0,0,1,961.854,563.68Z" fill="#fff"/>
    <path id="Path_471" data-name="Path 471" d="M961.854,561.68a47.083,47.083,0,0,1-34.06-13.92c-10.619-10.639-16.449-26.152-16.417-43.68a87,87,0,0,1,20.144-54.738c12.592-15.327,28.961-25.093,46.093-27.5a56.832,56.832,0,0,1,7.883-.562A47.066,47.066,0,0,1,1019.55,435.2c10.621,10.639,16.452,26.153,16.42,43.682a87,87,0,0,1-20.145,54.738c-12.589,15.326-28.956,25.092-46.085,27.5A56.793,56.793,0,0,1,961.854,561.68Z" fill="#333"/>
    <g id="Group_1009" data-name="Group 1009">
      <path id="Path_472" data-name="Path 472" d="M846.314,533.754l-27.352-14.879,21.292-2.992,27.352,14.879Z" fill="#a3a3a3"/>
    </g>
    <g id="Group_1010" data-name="Group 1010">
      <path id="Path_473" data-name="Path 473" d="M796.676,612.706l-27.352-14.879.053-28.583,27.352,14.879Z" fill="#757575"/>
    </g>
    <g id="Group_1011" data-name="Group 1011">
      <path id="Path_474" data-name="Path 474" d="M752.5,549.2l-27.352-14.879,45.8-6.436L798.3,542.767Z" fill="#a3a3a3"/>
    </g>
    <g id="Group_1012" data-name="Group 1012">
      <path id="Path_475" data-name="Path 475" d="M798.3,542.767l-27.352-14.879L771.1,442l27.352,14.879Z" fill="#757575"/>
    </g>
    <g id="Group_1013" data-name="Group 1013">
      <path id="Path_476" data-name="Path 476" d="M708.855,596.472,681.5,581.593l.087-46.887,27.352,14.879Z" fill="#757575"/>
    </g>
    <g id="Group_1014" data-name="Group 1014">
      <path id="Path_477" data-name="Path 477" d="M774.012,423.19,746.66,408.311l72.527-10.193L846.539,413Z" fill="url(#linear-gradient-6)"/>
    </g>
    <path id="Path_478" data-name="Path 478" d="M711.383,544.161q.807-1.784,1.624-3.57c.123-.268.244-.535.368-.8q.97-2.12,1.958-4.246.24-.52.484-1.041.805-1.731,1.621-3.47l.5-1.056q1.011-2.148,2.042-4.313l.361-.756q.875-1.832,1.765-3.677l.592-1.228q1.029-2.129,2.078-4.277c.026-.051.05-.1.076-.154q1.086-2.222,2.2-4.475c.2-.412.409-.825.614-1.238q.924-1.863,1.867-3.748c.154-.307.3-.611.459-.919q1.139-2.27,2.308-4.577c.2-.391.4-.786.6-1.178q.944-1.86,1.91-3.745c.211-.411.42-.821.631-1.234q1.221-2.377,2.476-4.8l.4-.78q1.086-2.091,2.2-4.22.365-.7.732-1.4,1.234-2.354,2.5-4.752l.174-.33q1.354-2.562,2.756-5.188c.25-.47.5-.944.756-1.417q1.155-2.163,2.341-4.369c.212-.394.42-.783.634-1.18q1.041-1.935,2.11-3.909l.4-.738q1.275-2.355,2.587-4.763c.262-.481.531-.971.8-1.455.619-1.136,1.241-2.275,1.873-3.429l1.025-1.867q.859-1.568,1.733-3.155l1.116-2.024q.85-1.542,1.716-3.106.588-1.064,1.182-2.136.882-1.591,1.78-3.208l1.166-2.1c.652-1.172,1.315-2.36,1.98-3.552l1.043-1.869q1.527-2.731,3.094-5.524L746.66,408.311q-1.57,2.8-3.094,5.525l-1.036,1.855c-.667,1.195-1.332,2.388-1.987,3.564l-1.173,2.109q-.891,1.6-1.77,3.191-.6,1.078-1.188,2.146-.858,1.55-1.7,3.077l-1.139,2.067-1.7,3.1c-.352.64-.7,1.284-1.053,1.919-.634,1.157-1.258,2.3-1.88,3.439-.257.472-.519.95-.774,1.419q-1.314,2.414-2.594,4.775c-.134.247-.263.487-.4.733q-1.068,1.973-2.113,3.913c-.065.122-.133.247-.2.368-.15.278-.292.546-.441.823q-1.179,2.193-2.327,4.342l-.77,1.442q-1.4,2.625-2.759,5.194l-.128.244q-1.291,2.442-2.541,4.828-.367.7-.73,1.4-1.1,2.1-2.171,4.166c-.147.283-.3.571-.444.854q-1.253,2.416-2.467,4.783l-.618,1.208q-.984,1.922-1.946,3.815l-.563,1.107q-1.18,2.33-2.33,4.621c-.143.285-.283.566-.425.85q-.958,1.917-1.9,3.81c-.2.4-.4.812-.6,1.216q-1.117,2.258-2.21,4.49l-.056.116q-1.063,2.175-2.1,4.323l-.58,1.2q-.891,1.851-1.769,3.687c-.12.253-.242.507-.362.759q-1.027,2.156-2.033,4.293c-.174.368-.345.735-.518,1.1q-.805,1.717-1.6,3.429l-.493,1.06q-.986,2.124-1.955,4.24l-.371.812q-.809,1.767-1.608,3.533l-.543,1.2q-.96,2.125-1.911,4.253l27.352,14.88q.955-2.141,1.922-4.278Z" fill="url(#linear-gradient-7)"/>
    <path id="Path_479" data-name="Path 479" d="M846.314,533.754l21.292-2.992-.081,43.411-21.291,2.992-.053,28.583-49.505,6.958.053-28.584-87.874,12.35.087-46.886c16.027-35.9,33.911-70.873,65.07-126.4L846.539,413Zm-48.019,9.013.16-85.888-.993.139C779.214,489.767,767.3,511.866,752.5,547.6l0,1.6,45.795-6.436" fill="url(#linear-gradient-3)"/>
    <path id="Path_480" data-name="Path 480" d="M798.733,581.82l-87.875,12.351.083-44.157c16.251-36.365,34.343-71.516,64.33-124.981l69.264-9.735-.224,120.757,21.291-2.992-.074,39.371-21.292,2.992-.052,28.583-45.5,6.4ZM796.2,455.176l-.484.869c-18.09,32.463-30.15,54.774-45.06,90.794l-.151.365-.008,4.3,49.8-7,.166-89.929Z" fill="url(#linear-gradient-9)"/>
    <g id="Group_1015" data-name="Group 1015">
      <path id="Path_481" data-name="Path 481" d="M1018.349,490.6,1011,488.464c.079-.61.154-1.223.21-1.826s.093-1.219.131-1.818l7.923-4.1a2.574,2.574,0,0,0,1.26-2.229l-.271-4.411a1.358,1.358,0,0,0-1.479-1.34l-8.1,1.109c-.21-1.128-.476-2.22-.775-3.29l6.79-6.72a2.377,2.377,0,0,0,.592-2.42l-1.623-3.7a1.34,1.34,0,0,0-1.909-.559l-7.9,4.206c-.56-.874-1.143-1.723-1.778-2.529l4.844-8.533a2,2,0,0,0-.14-2.33L1006,445.434a1.574,1.574,0,0,0-2.11.281l-6.733,6.807a28.9,28.9,0,0,0-2.585-1.474l2.31-9.311a1.586,1.586,0,0,0-.854-1.96l-3.6-1.079a1.978,1.978,0,0,0-2.057,1.088l-4.751,8.579a30.448,30.448,0,0,0-3.084-.224l-.5-8.975a1.35,1.35,0,0,0-1.47-1.35l-3.985.512a2.378,2.378,0,0,0-1.759,1.765l-2.2,9.324q-1.617.449-3.2,1.031L966.17,442.9a1.345,1.345,0,0,0-1.909-.581l-3.887,2.043a2.554,2.554,0,0,0-1.241,2.232l.607,8.937q-1.5,1.029-2.921,2.182L951.2,452.5a1.563,1.563,0,0,0-2.109.263l-3.327,3.327a2.39,2.39,0,0,0-.584,2.428l3.351,7.475c-.793.983-1.568,2.013-2.3,3.054l-7.3-2.25a1.969,1.969,0,0,0-2.062,1.074l-2.357,4.21a1.979,1.979,0,0,0,.149,2.327l5.684,5.111c-.509,1.176-.98,2.363-1.414,3.572l-8.086.982a2.359,2.359,0,0,0-1.764,1.753l-1.111,4.588a1.583,1.583,0,0,0,.859,1.953l7.349,2.131c-.084.611-.154,1.218-.21,1.827s-.093,1.214-.131,1.813l-7.923,4.1a2.56,2.56,0,0,0-1.26,2.228l.276,4.4a1.337,1.337,0,0,0,1.474,1.335l8.1-1.1q.321,1.689.77,3.29l-6.785,6.716a2.391,2.391,0,0,0-.6,2.424l1.623,3.7a1.346,1.346,0,0,0,1.909.56l7.9-4.211c.565.888,1.153,1.728,1.787,2.541l-4.843,8.521a1.994,1.994,0,0,0,.135,2.342l2.777,2.536a1.574,1.574,0,0,0,2.109-.283l6.738-6.81a26.283,26.283,0,0,0,2.585,1.478l-2.31,9.311a1.589,1.589,0,0,0,.849,1.961l3.6,1.083a1.988,1.988,0,0,0,2.063-1.1l4.755-8.582a29.56,29.56,0,0,0,3.07.234l.508,8.972a1.334,1.334,0,0,0,1.465,1.348l3.986-.509a2.367,2.367,0,0,0,1.754-1.761l2.207-9.328q1.617-.456,3.2-1.033l3.252,7.549a1.342,1.342,0,0,0,1.9.576l3.887-2.045a2.531,2.531,0,0,0,1.241-2.224l-.6-8.944c.994-.685,1.974-1.408,2.922-2.176l5.618,5.214a1.573,1.573,0,0,0,2.109-.263l3.323-3.326a2.385,2.385,0,0,0,.583-2.425l-3.351-7.478c.8-.987,1.568-2.013,2.31-3.063l7.293,2.255a1.95,1.95,0,0,0,2.054-1.074l2.37-4.211a1.984,1.984,0,0,0-.154-2.326l-5.683-5.108c.513-1.172.984-2.369,1.413-3.572l8.087-.984a2.36,2.36,0,0,0,1.764-1.754l1.115-4.583A1.587,1.587,0,0,0,1018.349,490.6Zm-17.91,5.82-7.191-2.1a32.223,32.223,0,0,1-7.074,12.609l5.5,5.106a37.889,37.889,0,0,1-13.645,10.158l-.587-8.765a21.169,21.169,0,0,1-6.062,1.777,17.053,17.053,0,0,1-5.884-.236l-2.254,9.12a20.817,20.817,0,0,1-12.062-6.839l6.6-6.671a19.034,19.034,0,0,1-4.862-11.059l-7.765,4.021a35.759,35.759,0,0,1-.186-8.373,41.087,41.087,0,0,1,1.777-8.631l7.186,2.1a32.174,32.174,0,0,1,7.07-12.6l-5.5-5.113a37.78,37.78,0,0,1,13.649-10.154l.588,8.754a20.988,20.988,0,0,1,6.062-1.771,17.109,17.109,0,0,1,5.87.234l2.259-9.121A20.838,20.838,0,0,1,996,465.71l-6.6,6.666a19.09,19.09,0,0,1,4.872,11.073l7.755-4.029a35.311,35.311,0,0,1,.187,8.378A41.17,41.17,0,0,1,1000.439,496.417Z" fill="url(#linear-gradient-10)"/>
      <path id="Path_482" data-name="Path 482" d="M977.383,450.867c-19.594,2.521-37.168,22.753-39.258,45.179s12.09,38.568,31.675,36.044,37.168-22.752,39.258-45.173C1011.149,464.48,996.967,448.346,977.383,450.867Zm-7.121,76.291c-17.205,2.215-29.669-11.963-27.825-31.666s17.274-37.476,34.479-39.689,29.674,11.96,27.835,31.666S987.467,524.942,970.262,527.158Z" fill="url(#linear-gradient-11)"/>
      <path id="Path_483" data-name="Path 483" d="M975.806,467.756c-11.447,1.477-21.708,13.287-22.93,26.387s7.059,22.534,18.506,21.06,21.7-13.291,22.93-26.39S987.247,466.28,975.806,467.756Zm-3.785,40.529c-8.1,1.045-13.971-5.635-13.1-14.917s8.134-17.647,16.244-18.7,13.97,5.64,13.1,14.917S980.132,507.242,972.021,508.285Z" fill="url(#linear-gradient-12)"/>
      <path id="Path_484" data-name="Path 484" d="M975.409,471.96c-9.407,1.21-17.858,10.932-18.861,21.715s5.809,18.538,15.221,17.324,17.863-10.934,18.861-21.71C991.643,478.5,984.831,470.748,975.409,471.96Zm-3.462,37.168c-8.521,1.1-14.681-5.918-13.771-15.665s8.549-18.543,17.06-19.633,14.681,5.917,13.761,15.661C988.1,499.24,980.458,508.027,971.947,509.128Z" fill="url(#linear-gradient-13)"/>
      <path id="Path_485" data-name="Path 485" d="M977.2,452.819c-18.646,2.4-35.375,21.657-37.363,43.006s11.507,36.714,30.154,34.314,35.375-21.655,37.368-43.013S995.847,450.414,977.2,452.819Zm-7.06,75.695c-17.863,2.3-30.793-12.419-28.885-32.869s17.938-38.9,35.791-41.2,30.8,12.412,28.89,32.868S988,526.214,970.136,528.514Z" fill="url(#linear-gradient-14)"/>
    </g>
    <g id="Group_1016" data-name="Group 1016">
      <path id="Path_486" data-name="Path 486" d="M738.029,580.759a9.177,9.177,0,0,1-4.941-3.908,13.035,13.035,0,0,1-1.736-6.994,16.65,16.65,0,0,1,1.736-7.628,15.422,15.422,0,0,1,4.941-5.694,18.7,18.7,0,0,1,7.544-3.059,14.934,14.934,0,0,1,7.545.3,9.089,9.089,0,0,1,4.94,3.888,13.025,13.025,0,0,1,1.737,6.994,16.634,16.634,0,0,1-1.737,7.628,15.581,15.581,0,0,1-4.94,5.713,18.552,18.552,0,0,1-7.545,3.078A14.782,14.782,0,0,1,738.029,580.759Zm13.27-7.713a11.622,11.622,0,0,0,2.087-7.215q0-4.467-2.067-6.437t-5.746-1.3a8.851,8.851,0,0,0-5.725,3.394,11.662,11.662,0,0,0-2.047,7.189q0,4.467,2.067,6.456t5.705,1.324A8.917,8.917,0,0,0,751.3,573.046Z" fill="#818181"/>
      <path id="Path_487" data-name="Path 487" d="M768.31,575.683a6.813,6.813,0,0,1-3.762-2.71,8.607,8.607,0,0,1-1.323-4.932,11.162,11.162,0,0,1,1.323-5.414,11.375,11.375,0,0,1,3.762-4.067,14.907,14.907,0,0,1,5.664-2.218,12.039,12.039,0,0,1,5.663.148,6.736,6.736,0,0,1,3.762,2.692,8.6,8.6,0,0,1,1.323,4.931,11.165,11.165,0,0,1-1.323,5.415,11.543,11.543,0,0,1-3.762,4.085,14.7,14.7,0,0,1-5.663,2.237A11.844,11.844,0,0,1,768.31,575.683Zm10.211-10.437a5.142,5.142,0,0,0-1.178-3.831,3.677,3.677,0,0,0-3.369-.721q-4.55.831-4.548,6.214t4.548,4.552Q778.521,570.629,778.521,565.246Z" fill="#818181"/>
      <path id="Path_488" data-name="Path 488" d="M805.743,551.777a6.479,6.479,0,0,1,3.184,2.892,9.943,9.943,0,0,1,1.137,4.927,12.259,12.259,0,0,1-1.137,5.3,10.575,10.575,0,0,1-7.834,5.994,8.2,8.2,0,0,1-3.742-.1,4.652,4.652,0,0,1-2.583-1.723v7.215a2.731,2.731,0,0,1-.827,1.984,4,4,0,0,1-2.191,1.088,3.2,3.2,0,0,1-2.336-.3,1.92,1.92,0,0,1-.889-1.747V556.47a2.992,2.992,0,0,1,.847-2.121,3.983,3.983,0,0,1,2.254-1.157,2.84,2.84,0,0,1,2.232.337,2.086,2.086,0,0,1,.827,1.815v.3a8.029,8.029,0,0,1,2.6-2.747,10.023,10.023,0,0,1,3.8-1.516A8.028,8.028,0,0,1,805.743,551.777Zm-3.079,13.085a6.641,6.641,0,0,0,1.2-4.132,5.241,5.241,0,0,0-1.2-3.809,3.581,3.581,0,0,0-3.39-.812,5.207,5.207,0,0,0-3.39,2.013,6.872,6.872,0,0,0-1.2,4.208,5.038,5.038,0,0,0,1.2,3.733,3.637,3.637,0,0,0,3.39.774A5.27,5.27,0,0,0,802.664,564.862Z" fill="#818181"/>
      <path id="Path_489" data-name="Path 489" d="M817.174,567.574a8.983,8.983,0,0,1-3.266-.625,1.866,1.866,0,0,1-.951-.742,2.23,2.23,0,0,1-.33-1.238,2.488,2.488,0,0,1,.537-1.568,2.124,2.124,0,0,1,1.323-.833,3.373,3.373,0,0,1,1.075-.025c.357.049.73.115,1.116.2a13.733,13.733,0,0,0,2.274.367,11.217,11.217,0,0,0,2.769-.22,5.708,5.708,0,0,0,2.254-.831,1.6,1.6,0,0,0,.806-1.293.927.927,0,0,0-.352-.795,2.808,2.808,0,0,0-1.3-.354q-.951-.092-3.018-.1-3.68.024-5.291-.98a3.619,3.619,0,0,1-1.613-3.332,5.578,5.578,0,0,1,1.137-3.3,9.806,9.806,0,0,1,3.121-2.727,13.844,13.844,0,0,1,4.465-1.6,14.158,14.158,0,0,1,3.473-.215,9.968,9.968,0,0,1,3.017.632,1.868,1.868,0,0,1,1.282,1.9,2.614,2.614,0,0,1-.538,1.625,2.105,2.105,0,0,1-1.322.853,4.634,4.634,0,0,1-2.274-.272,10.889,10.889,0,0,0-1.881-.4,7.046,7.046,0,0,0-2.005.118,4.645,4.645,0,0,0-2.026.81,1.666,1.666,0,0,0-.744,1.338,1.054,1.054,0,0,0,.868,1.063,13.164,13.164,0,0,0,3.349.228,17.432,17.432,0,0,1,4.341.409,4.021,4.021,0,0,1,2.273,1.36,4.226,4.226,0,0,1,.7,2.582,6.09,6.09,0,0,1-2.418,4.757,13.618,13.618,0,0,1-6.47,2.785A22.074,22.074,0,0,1,817.174,567.574Z" fill="#818181"/>
      <path id="Path_490" data-name="Path 490" d="M835.715,555.482a1.706,1.706,0,0,1-.641-1.22l-1.819-13.029a2.52,2.52,0,0,1-.041-.527,3.289,3.289,0,0,1,1.075-2.449,5.081,5.081,0,0,1,2.687-1.331,3.78,3.78,0,0,1,2.687.349,2.252,2.252,0,0,1,1.075,2.094,2.836,2.836,0,0,1-.041.542l-1.861,13.664a2.369,2.369,0,0,1-.6,1.446,2.233,2.233,0,0,1-1.261.688A1.605,1.605,0,0,1,835.715,555.482Zm-1.261,8.3a2.556,2.556,0,0,1-.992-2.166,3.708,3.708,0,0,1,.992-2.529,4.312,4.312,0,0,1,2.522-1.4,3.086,3.086,0,0,1,2.522.475,2.559,2.559,0,0,1,.992,2.166,3.708,3.708,0,0,1-.992,2.53,4.308,4.308,0,0,1-2.522,1.4A3.078,3.078,0,0,1,834.454,563.786Z" fill="#818181"/>
    </g>
    <g id="Group_1017" data-name="Group 1017">
      <path id="Path_491" data-name="Path 491" d="M738.846,582.226a9.179,9.179,0,0,1-4.941-3.907,13.034,13.034,0,0,1-1.736-6.994,16.646,16.646,0,0,1,1.736-7.628A15.423,15.423,0,0,1,738.846,558a18.7,18.7,0,0,1,7.544-3.059,14.936,14.936,0,0,1,7.545.3,9.088,9.088,0,0,1,4.94,3.889,13.025,13.025,0,0,1,1.737,6.993,16.631,16.631,0,0,1-1.737,7.628,15.566,15.566,0,0,1-4.94,5.714,18.551,18.551,0,0,1-7.545,3.077A14.761,14.761,0,0,1,738.846,582.226Zm13.27-7.713A11.62,11.62,0,0,0,754.2,567.3q0-4.467-2.066-6.437t-5.747-1.3a8.847,8.847,0,0,0-5.725,3.394,11.664,11.664,0,0,0-2.047,7.188q0,4.467,2.067,6.456t5.705,1.325A8.918,8.918,0,0,0,752.116,574.513Z" fill="#f2f2f2"/>
      <path id="Path_492" data-name="Path 492" d="M769.127,577.151a6.815,6.815,0,0,1-3.762-2.711,8.605,8.605,0,0,1-1.323-4.931,11.165,11.165,0,0,1,1.323-5.415,11.372,11.372,0,0,1,3.762-4.066,14.875,14.875,0,0,1,5.664-2.218,12.038,12.038,0,0,1,5.663.148,6.734,6.734,0,0,1,3.762,2.691,8.608,8.608,0,0,1,1.323,4.932,11.159,11.159,0,0,1-1.323,5.414,11.538,11.538,0,0,1-3.762,4.086,14.708,14.708,0,0,1-5.663,2.237A11.856,11.856,0,0,1,769.127,577.151Zm10.211-10.437a5.146,5.146,0,0,0-1.178-3.832,3.676,3.676,0,0,0-3.369-.72q-4.55.831-4.548,6.214t4.548,4.552Q779.338,572.1,779.338,566.714Z" fill="#f2f2f2"/>
      <path id="Path_493" data-name="Path 493" d="M806.56,553.245a6.479,6.479,0,0,1,3.184,2.892,9.938,9.938,0,0,1,1.137,4.927,12.26,12.26,0,0,1-1.137,5.3,10.576,10.576,0,0,1-7.834,5.993,8.187,8.187,0,0,1-3.742-.1,4.645,4.645,0,0,1-2.583-1.723v7.216a2.729,2.729,0,0,1-.827,1.983,3.994,3.994,0,0,1-2.191,1.088,3.2,3.2,0,0,1-2.336-.3,1.921,1.921,0,0,1-.889-1.747V557.937a2.993,2.993,0,0,1,.848-2.121,3.976,3.976,0,0,1,2.253-1.156,2.839,2.839,0,0,1,2.232.337,2.084,2.084,0,0,1,.827,1.815v.3a8.031,8.031,0,0,1,2.6-2.748,10.021,10.021,0,0,1,3.8-1.515A8.012,8.012,0,0,1,806.56,553.245Zm-3.079,13.085a6.644,6.644,0,0,0,1.2-4.133,5.24,5.24,0,0,0-1.2-3.808,3.579,3.579,0,0,0-3.39-.812,5.209,5.209,0,0,0-3.39,2.012,6.877,6.877,0,0,0-1.2,4.209,5.034,5.034,0,0,0,1.2,3.732,3.635,3.635,0,0,0,3.39.774A5.269,5.269,0,0,0,803.481,566.33Z" fill="#f2f2f2"/>
      <path id="Path_494" data-name="Path 494" d="M817.991,569.042a9.01,9.01,0,0,1-3.266-.625,1.868,1.868,0,0,1-.951-.743,2.224,2.224,0,0,1-.33-1.237,2.486,2.486,0,0,1,.537-1.568,2.13,2.13,0,0,1,1.323-.834,3.4,3.4,0,0,1,1.075-.024c.357.049.73.114,1.116.2a13.733,13.733,0,0,0,2.274.367,11.262,11.262,0,0,0,2.769-.22,5.692,5.692,0,0,0,2.254-.832,1.6,1.6,0,0,0,.806-1.292.926.926,0,0,0-.352-.8,2.8,2.8,0,0,0-1.3-.354q-.951-.093-3.018-.1-3.68.024-5.291-.98a3.617,3.617,0,0,1-1.613-3.332,5.577,5.577,0,0,1,1.137-3.3,9.782,9.782,0,0,1,3.121-2.727,13.844,13.844,0,0,1,4.465-1.6,14.159,14.159,0,0,1,3.473-.214,9.953,9.953,0,0,1,3.018.632,1.866,1.866,0,0,1,1.281,1.9,2.622,2.622,0,0,1-.537,1.626,2.1,2.1,0,0,1-1.323.852,4.623,4.623,0,0,1-2.274-.272,10.886,10.886,0,0,0-1.881-.4,7.049,7.049,0,0,0-2.005.118,4.654,4.654,0,0,0-2.026.809,1.669,1.669,0,0,0-.744,1.339,1.055,1.055,0,0,0,.868,1.063,13.262,13.262,0,0,0,3.349.228,17.435,17.435,0,0,1,4.341.409,4.018,4.018,0,0,1,2.274,1.36,4.231,4.231,0,0,1,.7,2.582,6.088,6.088,0,0,1-2.418,4.756,13.617,13.617,0,0,1-6.47,2.786A22.147,22.147,0,0,1,817.991,569.042Z" fill="#f2f2f2"/>
      <path id="Path_495" data-name="Path 495" d="M836.532,556.949a1.7,1.7,0,0,1-.641-1.219l-1.819-13.03a2.517,2.517,0,0,1-.041-.526,3.289,3.289,0,0,1,1.075-2.449,5.082,5.082,0,0,1,2.687-1.331,3.78,3.78,0,0,1,2.687.348,2.254,2.254,0,0,1,1.075,2.095,2.831,2.831,0,0,1-.041.542l-1.861,13.663a2.366,2.366,0,0,1-.6,1.446,2.235,2.235,0,0,1-1.261.689A1.6,1.6,0,0,1,836.532,556.949Zm-1.261,8.305a2.558,2.558,0,0,1-.992-2.167,3.709,3.709,0,0,1,.992-2.529,4.311,4.311,0,0,1,2.522-1.4,3.082,3.082,0,0,1,2.522.475,2.559,2.559,0,0,1,.992,2.166,3.705,3.705,0,0,1-.992,2.529,4.314,4.314,0,0,1-2.522,1.4A3.081,3.081,0,0,1,835.271,565.254Z" fill="#f2f2f2"/>
    </g>
    <g id="Group_1018" data-name="Group 1018">
      <path id="Path_496" data-name="Path 496" d="M1118.188,532.427a2.7,2.7,0,0,1-.789-2.16V506.621a3.591,3.591,0,0,1,.789-2.409,3.549,3.549,0,0,1,2.243-1.157l14.7-2.317q3.073-.484,3.074,2.054,0,2.58-3.074,3.064l-11.423,1.8v6.98l10.592-1.669q3.074-.484,3.074,2.1,0,2.538-3.074,3.022l-10.592,1.669v7.488l11.423-1.8q3.073-.484,3.074,2.1,0,2.538-3.074,3.023l-14.7,2.316A2.663,2.663,0,0,1,1118.188,532.427Z" fill="#818181"/>
      <path id="Path_497" data-name="Path 497" d="M1155.675,506.7a2.167,2.167,0,0,1,.726,1.853,3.256,3.256,0,0,1-.664,2.177,4.538,4.538,0,0,1-2.368,1.219l-1.246.324a5.673,5.673,0,0,0-3.3,2.043,5.734,5.734,0,0,0-1.018,3.418v8.079a3.235,3.235,0,0,1-.893,2.382,3.886,3.886,0,0,1-2.222,1.112,3.014,3.014,0,0,1-2.264-.405,2.375,2.375,0,0,1-.893-2.1V511.278a3.1,3.1,0,0,1,.914-2.3,3.918,3.918,0,0,1,2.2-1.108,2.673,2.673,0,0,1,2.076.413,2.224,2.224,0,0,1,.831,1.921v1.142a7.322,7.322,0,0,1,2.264-3.149,8.155,8.155,0,0,1,3.3-1.62l.581-.134A2.338,2.338,0,0,1,1155.675,506.7Z" fill="#818181"/>
      <path id="Path_498" data-name="Path 498" d="M1172.33,504.078a2.168,2.168,0,0,1,.727,1.853,3.263,3.263,0,0,1-.664,2.177,4.541,4.541,0,0,1-2.368,1.219l-1.246.323a5.236,5.236,0,0,0-4.32,5.461v8.08a3.239,3.239,0,0,1-.893,2.382,3.892,3.892,0,0,1-2.222,1.112,3.013,3.013,0,0,1-2.264-.4,2.375,2.375,0,0,1-.893-2.1V508.654a3.1,3.1,0,0,1,.914-2.3,3.915,3.915,0,0,1,2.2-1.108,2.675,2.675,0,0,1,2.077.413,2.223,2.223,0,0,1,.831,1.921v1.142a7.306,7.306,0,0,1,2.264-3.149,8.155,8.155,0,0,1,3.3-1.62l.581-.134A2.336,2.336,0,0,1,1172.33,504.078Z" fill="#818181"/>
      <path id="Path_499" data-name="Path 499" d="M1178.54,522.728a7.369,7.369,0,0,1-3.78-3.169,10.591,10.591,0,0,1-1.329-5.523,13.02,13.02,0,0,1,1.329-5.941,11.463,11.463,0,0,1,3.78-4.339,13.537,13.537,0,0,1,5.69-2.208,11.083,11.083,0,0,1,5.691.414,7.278,7.278,0,0,1,3.78,3.148,10.6,10.6,0,0,1,1.329,5.523,13.035,13.035,0,0,1-1.329,5.941,11.641,11.641,0,0,1-3.78,4.36,13.389,13.389,0,0,1-5.691,2.229A10.919,10.919,0,0,1,1178.54,522.728Zm10.259-11.114q0-3-1.183-4.3a3.55,3.55,0,0,0-3.386-.947q-4.569.72-4.569,6.684t4.569,5.245Q1188.8,517.579,1188.8,511.614Z" fill="#818181"/>
      <path id="Path_500" data-name="Path 500" d="M1212.995,497.671a2.167,2.167,0,0,1,.726,1.853,3.257,3.257,0,0,1-.664,2.177,4.538,4.538,0,0,1-2.368,1.219l-1.246.324a5.674,5.674,0,0,0-3.3,2.043,5.734,5.734,0,0,0-1.018,3.417v8.08a3.234,3.234,0,0,1-.893,2.382,3.885,3.885,0,0,1-2.222,1.112,3.013,3.013,0,0,1-2.264-.405,2.376,2.376,0,0,1-.893-2.1V502.247a3.1,3.1,0,0,1,.914-2.3,3.918,3.918,0,0,1,2.2-1.108,2.673,2.673,0,0,1,2.076.413,2.223,2.223,0,0,1,.831,1.921v1.142a7.321,7.321,0,0,1,2.264-3.149,8.155,8.155,0,0,1,3.3-1.62l.581-.134A2.338,2.338,0,0,1,1212.995,497.671Z" fill="#818181"/>
    </g>
    <g id="Group_1019" data-name="Group 1019">
      <path id="Path_501" data-name="Path 501" d="M1118.25,534.1a2.7,2.7,0,0,1-.789-2.159V508.293a3.589,3.589,0,0,1,.789-2.408,3.539,3.539,0,0,1,2.243-1.157l14.7-2.317q3.073-.484,3.074,2.054,0,2.58-3.074,3.064l-11.423,1.8v6.98l10.593-1.669q3.072-.484,3.073,2.1,0,2.538-3.073,3.022l-10.593,1.669v7.487l11.423-1.8q3.073-.484,3.074,2.1,0,2.538-3.074,3.022l-14.7,2.317A2.659,2.659,0,0,1,1118.25,534.1Z" fill="#f2f2f2"/>
      <path id="Path_502" data-name="Path 502" d="M1155.737,508.375a2.167,2.167,0,0,1,.727,1.853,3.258,3.258,0,0,1-.665,2.177,4.537,4.537,0,0,1-2.368,1.219l-1.246.323a5.674,5.674,0,0,0-3.3,2.044,5.733,5.733,0,0,0-1.018,3.417v8.079a3.235,3.235,0,0,1-.893,2.383,3.892,3.892,0,0,1-2.222,1.112,3.014,3.014,0,0,1-2.264-.4,2.377,2.377,0,0,1-.893-2.1V512.951a3.1,3.1,0,0,1,.914-2.3,3.912,3.912,0,0,1,2.2-1.108,2.677,2.677,0,0,1,2.077.413,2.225,2.225,0,0,1,.83,1.921v1.142a7.316,7.316,0,0,1,2.264-3.149,8.155,8.155,0,0,1,3.3-1.62l.582-.134A2.336,2.336,0,0,1,1155.737,508.375Z" fill="#f2f2f2"/>
      <path id="Path_503" data-name="Path 503" d="M1172.392,505.751a2.166,2.166,0,0,1,.727,1.853,3.265,3.265,0,0,1-.664,2.177,4.544,4.544,0,0,1-2.368,1.219l-1.246.323a5.67,5.67,0,0,0-3.3,2.044,5.732,5.732,0,0,0-1.018,3.417v8.079a3.239,3.239,0,0,1-.893,2.383,3.891,3.891,0,0,1-2.222,1.112,3.012,3.012,0,0,1-2.264-.4,2.376,2.376,0,0,1-.893-2.1V510.327a3.1,3.1,0,0,1,.914-2.3,3.92,3.92,0,0,1,2.2-1.109,2.679,2.679,0,0,1,2.077.414,2.222,2.222,0,0,1,.831,1.92v1.143a7.316,7.316,0,0,1,2.264-3.149,8.142,8.142,0,0,1,3.3-1.62l.581-.134A2.336,2.336,0,0,1,1172.392,505.751Z" fill="#f2f2f2"/>
      <path id="Path_504" data-name="Path 504" d="M1178.6,524.4a7.363,7.363,0,0,1-3.78-3.169,10.59,10.59,0,0,1-1.329-5.522,13.027,13.027,0,0,1,1.329-5.942,11.486,11.486,0,0,1,3.78-4.339,13.562,13.562,0,0,1,5.691-2.208,11.089,11.089,0,0,1,5.69.415,7.277,7.277,0,0,1,3.78,3.148,10.6,10.6,0,0,1,1.329,5.522,13.035,13.035,0,0,1-1.329,5.942,11.649,11.649,0,0,1-3.78,4.36,13.385,13.385,0,0,1-5.69,2.229A10.921,10.921,0,0,1,1178.6,524.4Zm10.259-11.113q0-3-1.183-4.3a3.549,3.549,0,0,0-3.385-.947q-4.57.72-4.57,6.684t4.57,5.245Q1188.861,519.252,1188.861,513.287Z" fill="#f2f2f2"/>
      <path id="Path_505" data-name="Path 505" d="M1213.057,499.344a2.166,2.166,0,0,1,.727,1.853,3.258,3.258,0,0,1-.665,2.177,4.545,4.545,0,0,1-2.368,1.219l-1.246.323a5.67,5.67,0,0,0-3.3,2.044,5.732,5.732,0,0,0-1.018,3.417v8.079a3.236,3.236,0,0,1-.893,2.383,3.891,3.891,0,0,1-2.222,1.112,3.013,3.013,0,0,1-2.264-.4,2.378,2.378,0,0,1-.893-2.1V503.92a3.1,3.1,0,0,1,.914-2.3,3.919,3.919,0,0,1,2.2-1.109,2.677,2.677,0,0,1,2.076.414,2.222,2.222,0,0,1,.831,1.92v1.143a7.315,7.315,0,0,1,2.264-3.149,8.143,8.143,0,0,1,3.3-1.62l.581-.134A2.337,2.337,0,0,1,1213.057,499.344Z" fill="#f2f2f2"/>
    </g>
  </g>
</svg>
